<?xml version="1.0" encoding="utf-8"?>
<!-- Generator: Adobe Illustrator 22.0.1, SVG Export Plug-In . SVG Version: 6.00 Build 0)  -->
<svg version="1.1" id="Layer_1" xmlns="http://www.w3.org/2000/svg" xmlns:xlink="http://www.w3.org/1999/xlink" x="0px" y="0px"
	 viewBox="0 0 107.3 107.1" style="enable-background:new 0 0 107.3 107.1;" xml:space="preserve">
<style type="text/css">
	.st0{fill:#260303;}
</style>
<g>
	<path class="st0" d="M53,2C24.8,2,2,24.8,2,53s22.8,51,51,51c28.2,0,51-22.8,51-51S81.2,2,53,2z M53,95.5
		c-23.5,0-42.5-19-42.5-42.5s19-42.5,42.5-42.5s42.5,19,42.5,42.5S76.5,95.5,53,95.5z"/>
	<path class="st0" d="M74.3,48.8H57.6V32.5c0-2.3-1.9-4.2-4.2-4.2s-4.2,1.9-4.2,4.2v16.2H31.7c-2.3,0-4.2,1.9-4.2,4.2
		c0,2.3,1.9,4.2,4.2,4.2h17.4V75c0,2.3,1.9,4.2,4.2,4.2c2.3,0,4.2-1.9,4.2-4.2V57.2h16.6c2.3,0,4.2-1.9,4.2-4.2
		C78.5,50.7,76.6,48.8,74.3,48.8z"/>
</g>
</svg>
