<?xml version="1.0" encoding="utf-8"?>
<!-- Generator: Adobe Illustrator 22.0.1, SVG Export Plug-In . SVG Version: 6.00 Build 0)  -->
<svg version="1.1" id="Layer_1" xmlns="http://www.w3.org/2000/svg" xmlns:xlink="http://www.w3.org/1999/xlink" x="0px" y="0px"
	 viewBox="0 0 153 155" style="enable-background:new 0 0 153 155;" xml:space="preserve">
<style type="text/css">
	.st0{fill:#260303;}
</style>
<g>
	<g>
		<path class="st0" d="M116.2,128.9l-12.2-8.6c-1.8-1.3-4.4-0.8-5.7,1c-1.3,1.8-0.8,4.4,1,5.7l1.6,1.2c-6,4.2-13.3,6.7-21.1,6.7
			H58.6c-8.2,0-15.7-2.7-21.9-7.3l0.9-0.6c1.8-1.3,2.3-3.7,1-5.5s-3.8-2.2-5.7-1l-2.2,1.5l0,0l-8.9,6.1l-1,0.7
			c-1.8,1.3-2.3,3.7-1,5.5s3.8,2.2,5.7,1l2.1-1.5c8.3,7.3,19.2,11.7,31,11.7h21.2c11.5,0,22-4.2,30.2-11.1l1.5,1.1
			c1.8,1.3,4.4,0.8,5.7-1C118.4,132.8,118,130.2,116.2,128.9z"/>
		<path class="st0" d="M124.8,59.8h2.7v-5.4c0-3-2.4-5.4-5.3-5.4H16.3c-2.9,0-5.3,2.4-5.3,5.4v42.9c0,9.6,2.8,18.6,7.6,26.1l8.7-6.2
			c-3.6-5.8-5.7-12.6-5.7-19.9V59.8h95.3v37.6c0,7.6-2.2,14.6-6,20.5l8.5,6.1c2.1-3.3,3.9-6.8,5.2-10.5h0.3c7.1,0,11.5-2.8,16.4-7.8
			c5.1-5,7.8-11.7,7.8-19C149,71.8,139.4,59.8,124.8,59.8z M133.7,98c-2.4,2.5-3.9,4-6.7,4.5c0.2-1.7,0.5-3.4,0.5-5.2V70.8
			c7.1,1.3,10.9,7.9,10.9,15.8C138.4,90.9,136.8,95,133.7,98z"/>
	</g>
	<path class="st0" d="M38.4,15.7c0.5,0.1,3.5,1.3,3.6,7.7c0.4,14.5,10.8,16.7,11.3,16.8c1.2,0.2,2.4,0,3.3-0.6
		c1.1-0.7,2-1.8,2.3-3.1c0.5-2.6-1.2-5-3.8-5.6c-0.2-0.1-3.3-1.2-3.5-7.7C51.2,8.8,40.8,6.6,40.3,6.5c-2.6-0.5-5.1,1.1-5.6,3.7
		C34.2,12.7,35.9,15.1,38.4,15.7z"/>
	<path class="st0" d="M14.7,16.4c0.5,0.1,3.5,1.3,3.6,7.7c0.4,14.5,10.8,16.7,11.3,16.8c1.2,0.2,2.4,0,3.3-0.6
		c1.1-0.7,2-1.8,2.3-3.1c0.5-2.6-1.2-5-3.8-5.6c-0.2-0.1-3.3-1.2-3.5-7.7C27.6,9.5,17.1,7.2,16.7,7.1c-2.6-0.5-5.1,1.1-5.6,3.7
		C10.6,13.3,12.2,15.8,14.7,16.4z"/>
	<path class="st0" d="M60.8,15c0.5,0.1,3.5,1.3,3.6,7.7c0.4,14.5,10.8,16.7,11.3,16.8c1.2,0.2,2.4,0,3.3-0.6c1.1-0.7,2-1.8,2.3-3.1
		c0.5-2.6-1.2-5-3.8-5.6c-0.2-0.1-3.3-1.2-3.5-7.7C73.6,8.1,63.2,5.9,62.7,5.8c-2.6-0.5-5.1,1.1-5.6,3.7C56.6,12,58.3,14.4,60.8,15z
		"/>
	<path class="st0" d="M81.7,96.4c0,0,5.3-2.7,10.7-2.7c5.4,0,10.9,2.7,10.9,2.7c2.8,0,5.1-2.3,5.1-5.1c0-2.8-2.3-5.1-5.1-5.1
		c0,0-5.4-2.7-10.9-2.7c-5.4,0-10.7,2.7-10.7,2.7c-2.8,0-5.1,2.3-5.1,5.1S78.9,96.4,81.7,96.4z"/>
	<path class="st0" d="M37,96.4c0,0,5.3-2.7,10.7-2.7s10.9,2.7,10.9,2.7c2.8,0,5.1-2.3,5.1-5.1c0-2.8-2.3-5.1-5.1-5.1
		c0,0-5.4-2.7-10.9-2.7c-5.4,0-10.7,2.7-10.7,2.7c-2.8,0-5.1,2.3-5.1,5.1C31.9,94.1,34.2,96.4,37,96.4z"/>
</g>
</svg>
