<?xml version="1.0" encoding="utf-8"?>
<!-- Generator: Adobe Illustrator 22.0.1, SVG Export Plug-In . SVG Version: 6.00 Build 0)  -->
<svg version="1.1" id="Layer_1" xmlns="http://www.w3.org/2000/svg" xmlns:xlink="http://www.w3.org/1999/xlink" x="0px" y="0px"
	 viewBox="0 0 129.3 109.6" style="enable-background:new 0 0 129.3 109.6;" xml:space="preserve">
<style type="text/css">
	.st0{fill-rule:evenodd;clip-rule:evenodd;fill:#260303;}
</style>
<g>
	<path class="st0" d="M72.3,33.2c-5.2,0-10,1.8-13.7,4.8c-3.7-3-8.5-4.8-13.7-4.8c-12,0-21.7,9.6-21.7,21.5
		c0,11.9,9.7,21.5,21.7,21.5c5.2,0,10-1.8,13.7-4.8c3.7,3,8.5,4.8,13.7,4.8c12,0,21.7-9.6,21.7-21.5C94,42.8,84.3,33.2,72.3,33.2z"
		/>
	<path class="st0" d="M109.2,45.2c-0.1,0-0.2,0-0.3,0c-1.8-9.9-6.5-19.4-14.1-27.1c-19.9-19.9-52.2-19.9-72.1,0
		C2.7,38,2.7,70.3,22.6,90.2c19.9,19.9,52.2,19.9,72.1,0c7.1-7.1,11.7-15.9,13.7-25.1c0.2,0,0.5,0,0.7,0c9.1,0,16.5-4.5,16.5-10
		S118.3,45.2,109.2,45.2z M88.7,84.2c-16.6,16.6-43.5,16.6-60.1,0C12,67.6,12,40.7,28.6,24.1c16.6-16.6,43.5-16.6,60.1,0
		C105.3,40.7,105.3,67.6,88.7,84.2z"/>
</g>
</svg>
