<?xml version="1.0" encoding="utf-8"?>
<!-- Generator: Adobe Illustrator 22.0.1, SVG Export Plug-In . SVG Version: 6.00 Build 0)  -->
<svg version="1.1" id="Layer_1" xmlns="http://www.w3.org/2000/svg" xmlns:xlink="http://www.w3.org/1999/xlink" x="0px" y="0px"
	 viewBox="0 0 124.4 107.1" style="enable-background:new 0 0 124.4 107.1;" xml:space="preserve">
<style type="text/css">
	.st0{fill-rule:evenodd;clip-rule:evenodd;fill:#260303;}
</style>
<g>
	<ellipse class="st0" cx="52.7" cy="53.5" rx="21.7" ry="21.5"/>
	<path class="st0" d="M104.5,44c-0.5,0-0.9,0-1.3,0c-1.8-9.9-6.5-19.4-14.1-27.1C69.1-3,36.9-3,16.9,16.9C-3,36.9-3,69.1,16.9,89.1
		c19.9,19.9,52.2,19.9,72.1,0c7.2-7.2,11.7-15.9,13.7-25.1c0.5,0,1.1,0.1,1.7,0.1c9.1,0,16.5-4.5,16.5-10
		C121,48.5,113.6,44,104.5,44z M83.1,83.1c-16.6,16.6-43.5,16.6-60.1,0c-16.6-16.6-16.6-43.5,0-60.1c16.6-16.6,43.5-16.6,60.1,0
		C99.6,39.5,99.6,66.5,83.1,83.1z"/>
</g>
</svg>
