<?xml version="1.0" encoding="utf-8"?>
<!-- Generator: Adobe Illustrator 22.0.1, SVG Export Plug-In . SVG Version: 6.00 Build 0)  -->
<svg version="1.1" id="Layer_1" xmlns="http://www.w3.org/2000/svg" xmlns:xlink="http://www.w3.org/1999/xlink" x="0px" y="0px"
	 viewBox="0 0 66.1 59.7" style="enable-background:new 0 0 66.1 59.7;" xml:space="preserve">
<style type="text/css">
	.st0{fill:#260303;}
</style>
<g>
	<path class="st0" d="M10.3,16.3h45.8c2.5,0,4.6-2.1,4.6-4.6c0-2.5-2.1-4.6-4.6-4.6H10.3c-2.5,0-4.6,2.1-4.6,4.6
		C5.8,14.2,7.8,16.3,10.3,16.3z"/>
	<path class="st0" d="M56.2,43.9H10.3c-2.5,0-4.6,2.1-4.6,4.6c0,2.5,2.1,4.6,4.6,4.6h45.8c2.5,0,4.6-2.1,4.6-4.6
		C60.8,45.9,58.7,43.9,56.2,43.9z"/>
	<path class="st0" d="M56.2,25.5H10.3c-2.5,0-4.6,2.1-4.6,4.6c0,2.5,2.1,4.6,4.6,4.6h45.8c2.5,0,4.6-2.1,4.6-4.6
		C60.8,27.5,58.7,25.5,56.2,25.5z"/>
</g>
</svg>
